<?xml version="1.0" encoding="UTF-8"?>
<!DOCTYPE svg PUBLIC "-//W3C//DTD SVG 1.1//EN" "http://www.w3.org/Graphics/SVG/1.1/DTD/svg11.dtd">
<svg xmlns="http://www.w3.org/2000/svg" version="1.1" width="500px" height="500px" style="shape-rendering:geometricPrecision; text-rendering:geometricPrecision; image-rendering:optimizeQuality; fill-rule:evenodd; clip-rule:evenodd" xmlns:xlink="http://www.w3.org/1999/xlink">
<g><path style="opacity:1" fill="#012e4a" d="M -0.5,-0.5 C 166.167,-0.5 332.833,-0.5 499.5,-0.5C 499.5,166.167 499.5,332.833 499.5,499.5C 332.833,499.5 166.167,499.5 -0.5,499.5C -0.5,332.833 -0.5,166.167 -0.5,-0.5 Z"/></g>
<g><path style="opacity:1" fill="#a66424" d="M 54.5,195.5 C 53.5026,217.66 53.1692,239.994 53.5,262.5C 52.1714,239.996 52.1714,217.33 53.5,194.5C 54.1067,194.624 54.44,194.957 54.5,195.5 Z"/></g>
<g><path style="opacity:1" fill="#fc8111" d="M 53.5,262.5 C 53.1692,239.994 53.5026,217.66 54.5,195.5C 68.8578,204.858 80.5245,216.858 89.5,231.5C 94.4446,224.715 99.6113,218.048 105,211.5C 111.421,205.075 118.421,199.409 126,194.5C 126.667,217.167 126.667,239.833 126,262.5C 112.225,273.608 100.559,286.608 91,301.5C 90.3333,289.833 90.3333,278.167 91,266.5C 95.8601,262.616 95.5268,259.282 90,256.5C 83.8735,258.859 83.2069,262.192 88,266.5C 88.6667,278.167 88.6667,289.833 88,301.5C 78.8041,286.427 67.3041,273.427 53.5,262.5 Z"/></g>
<g><path style="opacity:1" fill="#53a9f8" d="M 37.5,206.5 C 39.8862,207.298 42.2195,208.298 44.5,209.5C 45.333,228.491 45.833,247.491 46,266.5C 59.1968,274.025 69.1968,284.359 76,297.5C 65.203,286.682 52.3697,279.349 37.5,275.5C 37.5,252.5 37.5,229.5 37.5,206.5 Z"/></g>
<g><path style="opacity:1" fill="#54abfb" d="M 140.5,207.5 C 141.826,230.069 141.826,252.736 140.5,275.5C 126.132,279.712 113.632,287.046 103,297.5C 109.829,284.168 119.996,273.835 133.5,266.5C 134.333,247.509 134.833,228.509 135,209.5C 136.584,208.139 138.418,207.472 140.5,207.5 Z"/></g>
<g><path style="opacity:1" fill="#27679b" d="M 140.5,207.5 C 140.56,206.957 140.893,206.624 141.5,206.5C 141.833,218 142.167,229.5 142.5,241C 142.499,252.853 141.832,264.353 140.5,275.5C 141.826,252.736 141.826,230.069 140.5,207.5 Z"/></g>
<g><path style="opacity:1" fill="#135c9e" d="M 22.5,218.5 C 24.8333,218.5 27.1667,218.5 29.5,218.5C 29.3334,238.836 29.5,259.169 30,279.5C 46.0166,283.589 59.8499,291.422 71.5,303C 56.3679,294.455 40.0345,288.955 22.5,286.5C 22.5,263.833 22.5,241.167 22.5,218.5 Z"/></g>
<g><path style="opacity:1" fill="#135c9e" d="M 152.5,218.5 C 153.833,218.5 155.167,218.5 156.5,218.5C 156.5,241.167 156.5,263.833 156.5,286.5C 149.055,287.36 141.722,288.86 134.5,291C 125.055,294.463 116.055,298.463 107.5,303C 119.012,291.572 132.679,283.739 148.5,279.5C 149.5,259.178 149.833,238.844 149.5,218.5C 150.5,218.5 151.5,218.5 152.5,218.5 Z"/></g>
<g><path style="opacity:1" fill="#094372" d="M 152.5,218.5 C 153.919,217.549 155.585,217.216 157.5,217.5C 157.831,240.673 157.498,263.673 156.5,286.5C 156.5,263.833 156.5,241.167 156.5,218.5C 155.167,218.5 153.833,218.5 152.5,218.5 Z"/></g>
<g><path style="opacity:1" fill="#8da1ad" d="M 287.5,244.5 C 287.217,245.289 286.717,245.956 286,246.5C 285.501,240.509 285.334,234.509 285.5,228.5C 283.5,228.5 281.5,228.5 279.5,228.5C 279.5,242.5 279.5,256.5 279.5,270.5C 278.504,256.343 278.171,242.01 278.5,227.5C 281.167,227.5 283.833,227.5 286.5,227.5C 286.178,233.358 286.511,239.025 287.5,244.5 Z"/></g>
<g><path style="opacity:1" fill="#f5f6f7" d="M 287.5,244.5 C 292.532,240.685 297.865,240.518 303.5,244C 310.027,254.273 308.36,262.939 298.5,270C 293.322,272.554 288.822,271.721 285,267.5C 284.517,268.448 284.351,269.448 284.5,270.5C 282.833,270.5 281.167,270.5 279.5,270.5C 279.5,256.5 279.5,242.5 279.5,228.5C 281.5,228.5 283.5,228.5 285.5,228.5C 285.334,234.509 285.501,240.509 286,246.5C 286.717,245.956 287.217,245.289 287.5,244.5 Z"/></g>
<g><path style="opacity:1" fill="#ecf0f2" d="M 208.5,228.5 C 215.492,228.976 216.825,231.809 212.5,237C 207.504,237.664 205.67,235.498 207,230.5C 207.717,229.956 208.217,229.289 208.5,228.5 Z"/></g>
<g><path style="opacity:1" fill="#ea0797" d="M 458.5,228.5 C 465.492,228.976 466.825,231.809 462.5,237C 457.504,237.664 455.67,235.498 457,230.5C 457.717,229.956 458.217,229.289 458.5,228.5 Z"/></g>
<g><path style="opacity:1" fill="#c7d1d7" d="M 180.5,246.5 C 180.44,247.043 180.107,247.376 179.5,247.5C 178.505,241.872 178.171,236.206 178.5,230.5C 176.5,230.5 174.5,230.5 172.5,230.5C 172.5,243.833 172.5,257.167 172.5,270.5C 171.504,257.01 171.171,243.344 171.5,229.5C 174.167,229.5 176.833,229.5 179.5,229.5C 179.178,235.358 179.511,241.025 180.5,246.5 Z"/></g>
<g><path style="opacity:1" fill="#f3f5f6" d="M 172.5,270.5 C 172.5,257.167 172.5,243.833 172.5,230.5C 174.5,230.5 176.5,230.5 178.5,230.5C 178.171,236.206 178.505,241.872 179.5,247.5C 180.107,247.376 180.44,247.043 180.5,246.5C 185.663,241.17 190.663,235.67 195.5,230C 198.554,229.179 201.554,229.345 204.5,230.5C 198.316,236.85 192.316,243.35 186.5,250C 189.926,254.848 193.592,259.515 197.5,264C 199.235,264.651 200.902,264.485 202.5,263.5C 205.918,268.297 204.585,270.964 198.5,271.5C 195.972,271.237 193.639,270.404 191.5,269C 187.994,264.001 184.327,259.167 180.5,254.5C 179.505,259.792 179.172,265.125 179.5,270.5C 177.167,270.5 174.833,270.5 172.5,270.5 Z"/></g>
<g><path style="opacity:1" fill="#8f1479" d="M 332.5,230.5 C 326.5,230.5 320.5,230.5 314.5,230.5C 314.5,243.833 314.5,257.167 314.5,270.5C 313.504,257.01 313.171,243.344 313.5,229.5C 320.022,229.177 326.355,229.51 332.5,230.5 Z"/></g>
<g><path style="opacity:1" fill="#f5039a" d="M 332.5,230.5 C 341.942,231.697 345.775,237.031 344,246.5C 342.5,250 340,252.5 336.5,254C 331.58,255.25 326.58,255.75 321.5,255.5C 321.5,260.5 321.5,265.5 321.5,270.5C 319.167,270.5 316.833,270.5 314.5,270.5C 314.5,257.167 314.5,243.833 314.5,230.5C 320.5,230.5 326.5,230.5 332.5,230.5 Z"/></g>
<g><path style="opacity:1" fill="#f0f3f4" d="M 223.5,235.5 C 225.833,235.5 228.167,235.5 230.5,235.5C 230.5,237.5 230.5,239.5 230.5,241.5C 233.5,241.5 236.5,241.5 239.5,241.5C 239.5,243.5 239.5,245.5 239.5,247.5C 236.5,247.5 233.5,247.5 230.5,247.5C 230.334,252.844 230.501,258.177 231,263.5C 233.801,264.795 236.634,264.795 239.5,263.5C 242.632,269.205 240.798,271.539 234,270.5C 228.378,271.191 224.711,268.858 223,263.5C 222.501,258.177 222.334,252.844 222.5,247.5C 221.167,247.5 219.833,247.5 218.5,247.5C 218.5,245.5 218.5,243.5 218.5,241.5C 220.167,241.5 221.833,241.5 223.5,241.5C 223.5,239.5 223.5,237.5 223.5,235.5 Z"/></g>
<g><path style="opacity:1" fill="#0b2d4b" d="M 321.5,236.5 C 325.514,236.334 329.514,236.501 333.5,237C 335.954,237.943 336.954,239.776 336.5,242.5C 336.94,246.232 335.274,248.399 331.5,249C 328.183,249.498 324.85,249.665 321.5,249.5C 321.5,245.167 321.5,240.833 321.5,236.5 Z"/></g>
<g><path style="opacity:1" fill="#f6f7f8" d="M 252.5,241.5 C 257.284,240.839 261.618,241.839 265.5,244.5C 266.386,243.675 266.719,242.675 266.5,241.5C 268.167,241.5 269.833,241.5 271.5,241.5C 271.5,251.167 271.5,260.833 271.5,270.5C 269.167,270.5 266.833,270.5 264.5,270.5C 264.633,265.728 263.3,265.562 260.5,270C 253.017,273.012 247.517,270.846 244,263.5C 241.588,254.01 244.421,246.677 252.5,241.5 Z"/></g>
<g><path style="opacity:1" fill="#ea0797" d="M 348.5,241.5 C 350.833,241.5 353.167,241.5 355.5,241.5C 355.337,243.857 355.503,246.19 356,248.5C 358.139,242.678 362.305,240.345 368.5,241.5C 368.326,243.861 367.993,246.194 367.5,248.5C 363.361,247.704 360.195,249.037 358,252.5C 356.639,258.407 356.139,264.407 356.5,270.5C 353.833,270.5 351.167,270.5 348.5,270.5C 348.5,260.833 348.5,251.167 348.5,241.5 Z"/></g>
<g><path style="opacity:1" fill="#f10499" d="M 379.5,241.5 C 392.639,239.639 398.639,245.306 397.5,258.5C 391.167,258.5 384.833,258.5 378.5,258.5C 378.393,260.903 379.393,262.736 381.5,264C 385.59,264.954 389.423,264.454 393,262.5C 394.775,263.27 396.275,264.437 397.5,266C 389.839,273.146 382.005,273.313 374,266.5C 368.133,256.397 369.966,248.064 379.5,241.5 Z"/></g>
<g><path style="opacity:1" fill="#f5039a" d="M 403.5,241.5 C 405.833,241.5 408.167,241.5 410.5,241.5C 409.813,247.599 411.146,248.099 414.5,243C 421.037,239.923 426.037,241.423 429.5,247.5C 433.872,241.431 439.539,239.931 446.5,243C 448.317,244.8 449.484,246.966 450,249.5C 450.5,256.492 450.666,263.492 450.5,270.5C 448.167,270.5 445.833,270.5 443.5,270.5C 443.666,264.158 443.5,257.825 443,251.5C 442.266,249.264 440.766,247.931 438.5,247.5C 435.559,248.606 433.392,250.606 432,253.5C 430.783,259.101 430.283,264.768 430.5,270.5C 428.167,270.5 425.833,270.5 423.5,270.5C 423.666,264.158 423.5,257.825 423,251.5C 420.523,246.632 417.523,246.299 414,250.5C 410.885,256.784 409.718,263.451 410.5,270.5C 408.167,270.5 405.833,270.5 403.5,270.5C 403.5,260.833 403.5,251.167 403.5,241.5 Z"/></g>
<g><path style="opacity:1" fill="#9cadb9" d="M 213.5,270.5 C 213.5,261.167 213.5,251.833 213.5,242.5C 211.5,242.5 209.5,242.5 207.5,242.5C 207.5,251.833 207.5,261.167 207.5,270.5C 206.506,261.014 206.173,251.348 206.5,241.5C 209.167,241.5 211.833,241.5 214.5,241.5C 214.827,251.348 214.494,261.014 213.5,270.5 Z"/></g>
<g><path style="opacity:1" fill="#fefffe" d="M 213.5,270.5 C 211.5,270.5 209.5,270.5 207.5,270.5C 207.5,261.167 207.5,251.833 207.5,242.5C 209.5,242.5 211.5,242.5 213.5,242.5C 213.5,251.833 213.5,261.167 213.5,270.5 Z"/></g>
<g><path style="opacity:1" fill="#fe009d" d="M 457.5,242.5 C 459.5,242.5 461.5,242.5 463.5,242.5C 463.5,251.833 463.5,261.167 463.5,270.5C 461.5,270.5 459.5,270.5 457.5,270.5C 457.5,261.167 457.5,251.833 457.5,242.5 Z"/></g>
<g><path style="opacity:1" fill="#b30d85" d="M 457.5,242.5 C 459.607,241.532 461.941,241.198 464.5,241.5C 464.827,251.348 464.494,261.014 463.5,270.5C 463.5,261.167 463.5,251.833 463.5,242.5C 461.5,242.5 459.5,242.5 457.5,242.5 Z"/></g>
<g><path style="opacity:1" fill="#09324e" d="M 255.5,247.5 C 260.777,246.785 263.777,248.952 264.5,254C 264.324,263.316 260.158,266.149 252,262.5C 249.171,256.376 250.338,251.376 255.5,247.5 Z"/></g>
<g><path style="opacity:1" fill="#05304c" d="M 291.5,247.5 C 296.916,247.083 299.583,249.583 299.5,255C 299.306,263.923 295.306,266.423 287.5,262.5C 285.235,256.349 286.568,251.349 291.5,247.5 Z"/></g>
<g><path style="opacity:1" fill="#102d4c" d="M 390.5,249.5 C 390.5,250.5 390.5,251.5 390.5,252.5C 386.5,252.5 382.5,252.5 378.5,252.5C 379.562,247.631 382.562,245.798 387.5,247C 388.942,247.377 389.942,248.21 390.5,249.5 Z"/></g>
<g><path style="opacity:1" fill="#561f66" d="M 390.5,249.5 C 391.434,250.568 391.768,251.901 391.5,253.5C 386.968,253.818 382.634,253.485 378.5,252.5C 382.5,252.5 386.5,252.5 390.5,252.5C 390.5,251.5 390.5,250.5 390.5,249.5 Z"/></g>
</svg>
